Coordinates
version=1
nRows=38
nColumns=12
inDegrees=yes

Units are S.I. units (second, meters, Newtons, ...)
Angles are in degrees

endheader
time	SC_y	SC_z	SC_x	AC_y	AC_z	AC_x	GH_y	GH_z	GH_yy	EL_x	PS_y
       0.0              -35.71          35.13          70.08          49.63         -4.057          17.44          57.45          20.49          57.52          94.73          145.8
   0.02252              -35.71          35.13          70.08          49.64         -4.057          17.43          57.44          20.49           57.5          94.73          145.8
   0.04503              -35.71          35.13          70.08          49.64         -4.056          17.43          57.43          20.49          57.48          94.73          145.8
   0.06755              -35.72          35.13          70.08          49.64         -4.056          17.43          57.42          20.48          57.46          94.72          145.8
   0.09007              -35.72          35.13          70.08          49.64         -4.055          17.42           57.4          20.48          57.43          94.72          145.8
    0.1126              -35.72          35.13          70.08          49.65         -4.054          17.42          57.39          20.48           57.4          94.72          145.7
    0.1351              -35.73          35.13          70.09          49.65         -4.054          17.41          57.37          20.48          57.38          94.71          145.7
    0.1576              -35.73          35.13          70.09          49.65         -4.053          17.41          57.36          20.48          57.34          94.71          145.7
    0.1801              -35.74          35.13          70.09          49.66         -4.052           17.4          57.34          20.47          57.31           94.7          145.7
    0.2027              -35.74          35.13          70.09          49.66         -4.051           17.4          57.32          20.47          57.28           94.7          145.6
    0.2252              -35.75          35.13          70.09          49.66         -4.051          17.39          57.31          20.47          57.24          94.69          145.6
    0.2477              -35.75          35.13          70.09          49.67          -4.05          17.39          57.28          20.46           57.2          94.69          145.6
    0.2702              -35.76          35.13          70.09          49.67         -4.049          17.38          57.26          20.46          57.16          94.68          145.5
    0.2927              -35.76          35.13          70.09          49.68         -4.048          17.37          57.24          20.46          57.11          94.67          145.5
    0.3152              -35.77          35.13           70.1          49.68         -4.046          17.36          57.21          20.45          57.06          94.67          145.5
    0.3378              -35.78          35.13           70.1          49.69         -4.045          17.36          57.18          20.45           57.0          94.66          145.4
    0.3603              -35.79          35.13           70.1           49.7         -4.044          17.35          57.15          20.44          56.94          94.65          145.4
    0.3828               -35.8          35.13           70.1           49.7         -4.042          17.34          57.12          20.44          56.88          94.64          145.3
    0.4053              -35.81          35.13           70.1          49.71          -4.04          17.32          57.08          20.43          56.81          94.63          145.3
    0.4278              -35.82          35.13          70.11          49.72         -4.039          17.31          57.04          20.43          56.73          94.62          145.2
    0.4503              -35.83          35.13          70.11          49.73         -4.037           17.3           57.0          20.42          56.64          94.61          145.1
    0.4729              -35.84          35.13          70.11          49.74         -4.034          17.28          56.95          20.41          56.55           94.6          145.1
    0.4954              -35.86          35.13          70.12          49.75         -4.032          17.27           56.9          20.41          56.44          94.58          145.0
    0.5179              -35.87          35.13          70.12          49.76         -4.029          17.25          56.84           20.4          56.33          94.56          144.9
    0.5404              -35.89          35.13          70.12          49.78         -4.026          17.23          56.77          20.39           56.2          94.55          144.8
    0.5629              -35.91          35.13          70.13          49.79         -4.023          17.21           56.7          20.38          56.06          94.53          144.7
    0.5854              -35.94          35.13          70.13          49.81         -4.019          17.18          56.62          20.36           55.9           94.5          144.6
     0.608              -35.96          35.13          70.14          49.83         -4.015          17.15          56.52          20.35          55.71          94.48          144.4
    0.6305              -35.99          35.13          70.15          49.85          -4.01          17.12          56.42          20.34          55.51          94.45          144.3
     0.653              -36.02          35.13          70.15          49.88         -4.005          17.08           56.3          20.32          55.28          94.42          144.1
    0.6755              -36.06          35.12          70.16           49.9         -3.999          17.04          56.16           20.3          55.01          94.38          143.9
     0.698               -36.1          35.12          70.17          49.94         -3.992           17.0          56.01          20.27          54.71          94.34          143.6
    0.7205              -36.15          35.12          70.18          49.97         -3.983          16.94          55.83          20.25          54.36          94.29          143.4
    0.7431              -36.21          35.12           70.2          50.02         -3.974          16.88          55.62          20.22          53.95          94.23          143.0
    0.7656              -36.28          35.12          70.21          50.07         -3.963           16.8          55.38          20.18          53.48          94.17          142.7
    0.7881              -36.36          35.12          70.23          50.13          -3.95          16.71          55.09          20.14          52.92          94.09          142.2
    0.8106              -36.45          35.11          70.25           50.2         -3.934          16.61          54.75          20.09          52.25          93.99          141.7
    0.8331              -36.56          35.11          70.28          50.29         -3.916          16.48          54.33          20.03          51.45          93.88          141.1
